<svg xmlns="http://www.w3.org/2000/svg" width="287" height="87" viewBox="0 0 287 87">
  <g id="Logo" transform="translate(-1312 -1170)">
    <text id="SPMG" transform="translate(1415 1236)" fill="#3282b8" stroke="#3282b8" stroke-width="4" font-size="60" font-family="BonvenoCF-Light, BonvenoCF" font-weight="300"><tspan x="0" y="0">SPMG</tspan></text>
    <g id="LogoLightr" transform="translate(-7536 -1219.113)">
      <g id="Caminho_58" data-name="Caminho 58" transform="translate(8848 2393.113)" fill="#eff8fb">
        <path d="M 40.5 74 C 35.68998336791992 74 31.02758407592773 73.08275604248047 26.64230728149414 71.27373504638672 C 22.41207695007324 69.52867889404297 18.61387634277344 67.03140258789063 15.35324573516846 63.85126113891602 C 12.10130786895752 60.67963027954102 9.549907684326172 56.99032211303711 7.769907474517822 52.88582992553711 C 5.931922912597656 48.64767837524414 5 44.1440315246582 5 39.5 C 5 34.8559684753418 5.931922912597656 30.35232353210449 7.769907474517822 26.11417007446289 C 9.549907684326172 22.00967597961426 12.10130786895752 18.32036972045898 15.35324573516846 15.14873886108398 C 18.61387634277344 11.96860027313232 22.41207695007324 9.471323013305664 26.64230728149414 7.726261615753174 C 31.02758407592773 5.917246341705322 35.68998336791992 5 40.5 5 C 45.31001663208008 5 49.97241592407227 5.917246341705322 54.35769271850586 7.726261615753174 C 58.58794021606445 9.471323013305664 62.38612365722656 11.96860027313232 65.64675140380859 15.14873886108398 C 68.89868927001953 18.32036972045898 71.45008850097656 22.00967597961426 73.23009490966797 26.11417007446289 C 75.06807708740234 30.35232353210449 76 34.8559684753418 76 39.5 C 76 44.1440315246582 75.06807708740234 48.64767837524414 73.23009490966797 52.88582992553711 C 71.45008850097656 56.99032211303711 68.89868927001953 60.67963027954102 65.64675140380859 63.85126113891602 C 62.38612365722656 67.03140258789063 58.58794021606445 69.52867889404297 54.35769271850586 71.27373504638672 C 49.97241592407227 73.08275604248047 45.31001663208008 74 40.5 74 Z" stroke="none"/>
        <path d="M 40.5 10 C 23.6822395324707 10 10 23.23363876342773 10 39.5 C 10 55.766357421875 23.6822395324707 69 40.5 69 C 57.3177604675293 69 71 55.766357421875 71 39.5 C 71 23.23363876342773 57.3177604675293 10 40.5 10 M 40.5 0 C 62.86751937866211 0 81 17.68476104736328 81 39.5 C 81 61.31523895263672 62.86751937866211 79 40.5 79 C 18.13246154785156 79 0 61.31523895263672 0 39.5 C 0 17.68476104736328 18.13246154785156 0 40.5 0 Z" stroke="none" fill="#3282b8"/>
      </g>
      <g id="Cruz" transform="translate(8906.014 2448.764) rotate(180)">
        <rect id="Ret창ngulo_64" data-name="Ret창ngulo 64" width="8.862" height="33.93" rx="4.431" transform="translate(12.608)" fill="#3282b8"/>
        <rect id="Ret창ngulo_65" data-name="Ret창ngulo 65" width="8.862" height="33.93" rx="4.431" transform="matrix(-0.017, 1, -1, -0.017, 34.079, 12.83)" fill="#3282b8"/>
      </g>
    </g>
  </g>
</svg>
