<svg xmlns="http://www.w3.org/2000/svg" xmlns:xlink="http://www.w3.org/1999/xlink" width="1366" height="768" viewBox="0 0 1366 768">
  <defs>
    <clipPath id="clip-Web_1366_1">
      <rect width="1366" height="768"/>
    </clipPath>
  </defs>
  <g id="Web_1366_1" data-name="Web 1366 – 1" clip-path="url(#clip-Web_1366_1)">
    <rect width="1366" height="768" fill="#eff8fb"/>
    <text id="NotFound_404" data-name="NotFound | 404" transform="translate(246.898 420.726)" fill="#3282b8" stroke="#3282b8" stroke-width="2" font-size="105" font-family="BonvenoCF-Light, BonvenoCF" font-weight="300"><tspan x="0" y="0">NotFound | 404</tspan></text>
    <g id="Cruz" transform="translate(944.915 40.25)">
      <rect id="Retângulo_34" data-name="Retângulo 34" width="36.148" height="165.737" rx="18.074" transform="translate(62.121 0)" fill="#0f4c75"/>
      <rect id="Retângulo_35" data-name="Retângulo 35" width="161.989" height="33.717" rx="16.858" transform="translate(0 64.217)" fill="#0f4c75"/>
    </g>
    <g id="Cruz-2" data-name="Cruz" transform="translate(57.576 40.25)">
      <rect id="Retângulo_34-2" data-name="Retângulo 34" width="44.514" height="201.203" rx="20" transform="translate(74.927 0)" fill="#3282b8"/>
      <rect id="Retângulo_35-2" data-name="Retângulo 35" width="196.754" height="40.953" rx="20" transform="translate(0 77.895)" fill="#3282b8"/>
    </g>
    <g id="Cruz-3" data-name="Cruz" transform="translate(246.899 594.751)">
      <rect id="Retângulo_34-3" data-name="Retângulo 34" width="23.939" height="108.202" rx="11.969" transform="translate(40.294 0)" fill="#00e0ff"/>
      <rect id="Retângulo_35-3" data-name="Retângulo 35" width="105.81" height="22.023" rx="11.012" transform="translate(0 41.89)" fill="#00e0ff"/>
    </g>
    <g id="Cruz-4" data-name="Cruz" transform="translate(1159.066 462.447)">
      <rect id="Retângulo_34-4" data-name="Retângulo 34" width="12.939" height="59.325" rx="6.47" transform="translate(22.236 0)" fill="#0f4c75"/>
      <rect id="Retângulo_35-4" data-name="Retângulo 35" width="57.984" height="12.069" rx="6.034" transform="translate(0 22.986)" fill="#0f4c75"/>
    </g>
    <g id="Cruz-5" data-name="Cruz" transform="translate(1201.043 40.25)">
      <rect id="Retângulo_34-5" data-name="Retângulo 34" width="24.294" height="109.809" rx="12.147" transform="translate(40.892 0)" fill="#3282b8"/>
      <rect id="Retângulo_35-5" data-name="Retângulo 35" width="107.381" height="22.351" rx="11.175" transform="translate(0 42.512)" fill="#3282b8"/>
    </g>
    <g id="Cruz-6" data-name="Cruz" transform="translate(120.063 345.251)">
      <rect id="Retângulo_34-6" data-name="Retângulo 34" width="16.24" height="73.406" rx="8.12" transform="translate(27.336 0)" fill="#3282b8"/>
      <rect id="Retângulo_35-6" data-name="Retângulo 35" width="71.783" height="14.941" rx="7.471" transform="translate(0 28.419)" fill="#3282b8"/>
    </g>
    <g id="Cruz-7" data-name="Cruz" transform="translate(1217.051 650.679)">
      <rect id="Retângulo_34-7" data-name="Retângulo 34" width="17.051" height="77.071" rx="8.526" transform="translate(28.701 0)" fill="#00e0ff"/>
      <rect id="Retângulo_35-7" data-name="Retângulo 35" width="75.367" height="15.687" rx="7.844" transform="translate(0 29.838)" fill="#00e0ff"/>
    </g>
  </g>
</svg>
